<svg width="18" height="20" viewBox="0 0 18 20" fill="none" xmlns="http://www.w3.org/2000/svg">
<path d="M16.5 2.1875H14.0625V1.25C14.0625 1.10082 14.0032 0.957742 13.8977 0.852252C13.7923 0.746763 13.6492 0.6875 13.5 0.6875C13.3508 0.6875 13.2077 0.746763 13.1023 0.852252C12.9968 0.957742 12.9375 1.10082 12.9375 1.25V2.1875H5.0625V1.25C5.0625 1.10082 5.00324 0.957742 4.89775 0.852252C4.79226 0.746763 4.64918 0.6875 4.5 0.6875C4.35082 0.6875 4.20774 0.746763 4.10225 0.852252C3.99676 0.957742 3.9375 1.10082 3.9375 1.25V2.1875H1.5C1.1519 2.1875 0.818064 2.32578 0.571922 2.57192C0.325781 2.81806 0.1875 3.1519 0.1875 3.5V18.5C0.1875 18.8481 0.325781 19.1819 0.571922 19.4281C0.818064 19.6742 1.1519 19.8125 1.5 19.8125H16.5C16.8481 19.8125 17.1819 19.6742 17.4281 19.4281C17.6742 19.1819 17.8125 18.8481 17.8125 18.5V3.5C17.8125 3.1519 17.6742 2.81806 17.4281 2.57192C17.1819 2.32578 16.8481 2.1875 16.5 2.1875ZM1.5 3.3125H3.9375V4.25C3.9375 4.39918 3.99676 4.54226 4.10225 4.64775C4.20774 4.75324 4.35082 4.8125 4.5 4.8125C4.64918 4.8125 4.79226 4.75324 4.89775 4.64775C5.00324 4.54226 5.0625 4.39918 5.0625 4.25V3.3125H12.9375V4.25C12.9375 4.39918 12.9968 4.54226 13.1023 4.64775C13.2077 4.75324 13.3508 4.8125 13.5 4.8125C13.6492 4.8125 13.7923 4.75324 13.8977 4.64775C14.0032 4.54226 14.0625 4.39918 14.0625 4.25V3.3125H16.5C16.5497 3.3125 16.5974 3.33225 16.6326 3.36742C16.6677 3.40258 16.6875 3.45027 16.6875 3.5V6.6875H1.3125V3.5C1.3125 3.45027 1.33225 3.40258 1.36742 3.36742C1.40258 3.33225 1.45027 3.3125 1.5 3.3125ZM16.5 18.6875H1.5C1.45027 18.6875 1.40258 18.6677 1.36742 18.6326C1.33225 18.5974 1.3125 18.5497 1.3125 18.5V7.8125H16.6875V18.5C16.6875 18.5497 16.6677 18.5974 16.6326 18.6326C16.5974 18.6677 16.5497 18.6875 16.5 18.6875ZM9.9375 11.375C9.9375 11.5604 9.88252 11.7417 9.7795 11.8958C9.67649 12.05 9.53007 12.1702 9.35876 12.2411C9.18746 12.3121 8.99896 12.3307 8.8171 12.2945C8.63525 12.2583 8.4682 12.169 8.33709 12.0379C8.20598 11.9068 8.11669 11.7398 8.08051 11.5579C8.04434 11.376 8.06291 11.1875 8.13386 11.0162C8.20482 10.8449 8.32498 10.6985 8.47915 10.5955C8.63332 10.4925 8.81458 10.4375 9 10.4375C9.24864 10.4375 9.4871 10.5363 9.66291 10.7121C9.83873 10.8879 9.9375 11.1264 9.9375 11.375ZM14.0625 11.375C14.0625 11.5604 14.0075 11.7417 13.9045 11.8958C13.8015 12.05 13.6551 12.1702 13.4838 12.2411C13.3125 12.3121 13.124 12.3307 12.9421 12.2945C12.7602 12.2583 12.5932 12.169 12.4621 12.0379C12.331 11.9068 12.2417 11.7398 12.2055 11.5579C12.1693 11.376 12.1879 11.1875 12.2589 11.0162C12.3298 10.8449 12.45 10.6985 12.6042 10.5955C12.7583 10.4925 12.9396 10.4375 13.125 10.4375C13.3736 10.4375 13.6121 10.5363 13.7879 10.7121C13.9637 10.8879 14.0625 11.1264 14.0625 11.375ZM5.8125 15.125C5.8125 15.3104 5.75752 15.4917 5.6545 15.6458C5.55149 15.8 5.40507 15.9202 5.23377 15.9911C5.06246 16.0621 4.87396 16.0807 4.6921 16.0445C4.51025 16.0083 4.3432 15.919 4.21209 15.7879C4.08098 15.6568 3.99169 15.4898 3.95551 15.3079C3.91934 15.126 3.93791 14.9375 4.00886 14.7662C4.07982 14.5949 4.19998 14.4485 4.35415 14.3455C4.50832 14.2425 4.68958 14.1875 4.875 14.1875C5.12364 14.1875 5.3621 14.2863 5.53791 14.4621C5.71373 14.6379 5.8125 14.8764 5.8125 15.125ZM9.9375 15.125C9.9375 15.3104 9.88252 15.4917 9.7795 15.6458C9.67649 15.8 9.53007 15.9202 9.35876 15.9911C9.18746 16.0621 8.99896 16.0807 8.8171 16.0445C8.63525 16.0083 8.4682 15.919 8.33709 15.7879C8.20598 15.6568 8.11669 15.4898 8.08051 15.3079C8.04434 15.126 8.06291 14.9375 8.13386 14.7662C8.20482 14.5949 8.32498 14.4485 8.47915 14.3455C8.63332 14.2425 8.81458 14.1875 9 14.1875C9.24864 14.1875 9.4871 14.2863 9.66291 14.4621C9.83873 14.6379 9.9375 14.8764 9.9375 15.125ZM14.0625 15.125C14.0625 15.3104 14.0075 15.4917 13.9045 15.6458C13.8015 15.8 13.6551 15.9202 13.4838 15.9911C13.3125 16.0621 13.124 16.0807 12.9421 16.0445C12.7602 16.0083 12.5932 15.919 12.4621 15.7879C12.331 15.6568 12.2417 15.4898 12.2055 15.3079C12.1693 15.126 12.1879 14.9375 12.2589 14.7662C12.3298 14.5949 12.45 14.4485 12.6042 14.3455C12.7583 14.2425 12.9396 14.1875 13.125 14.1875C13.3736 14.1875 13.6121 14.2863 13.7879 14.4621C13.9637 14.6379 14.0625 14.8764 14.0625 15.125Z" fill="white"/>
</svg>
