<svg width="18" height="18" viewBox="0 0 18 18" fill="none" xmlns="http://www.w3.org/2000/svg">
<path d="M9.75 4.12502V8.41315L13.3181 10.5535C13.4034 10.6047 13.4649 10.6877 13.4889 10.7842C13.513 10.8807 13.4978 10.9829 13.4466 11.0681C13.3953 11.1534 13.3123 11.2149 13.2158 11.239C13.1193 11.263 13.0172 11.2478 12.9319 11.1966L9.18188 8.94658C9.12638 8.91324 9.08046 8.8661 9.04859 8.80975C9.01672 8.7534 8.99998 8.68976 9 8.62502V4.12502C9 4.02557 9.03951 3.93018 9.10983 3.85986C9.18016 3.78953 9.27554 3.75002 9.375 3.75002C9.47446 3.75002 9.56984 3.78953 9.64017 3.85986C9.71049 3.93018 9.75 4.02557 9.75 4.12502ZM9.375 2.11615e-05C8.2413 -0.00249803 7.11836 0.219932 6.07123 0.654428C5.02409 1.08893 4.07356 1.72685 3.27469 2.53127C2.34844 3.46877 1.56187 4.35658 0.75 5.33065V2.62502C0.75 2.52556 0.710491 2.43018 0.640165 2.35986C0.569839 2.28953 0.474456 2.25002 0.375 2.25002C0.275544 2.25002 0.180161 2.28953 0.109835 2.35986C0.0395089 2.43018 0 2.52556 0 2.62502V6.37502C0 6.47448 0.0395089 6.56986 0.109835 6.64019C0.180161 6.71051 0.275544 6.75002 0.375 6.75002H4.125C4.22446 6.75002 4.31984 6.71051 4.39017 6.64019C4.46049 6.56986 4.5 6.47448 4.5 6.37502C4.5 6.27557 4.46049 6.18018 4.39017 6.10986C4.31984 6.03953 4.22446 6.00002 4.125 6.00002H1.16906C2.02594 4.96877 2.84062 4.03127 3.80625 3.05627C4.90068 1.96177 6.29338 1.21405 7.81034 0.906536C9.3273 0.599025 10.9012 0.745362 12.3355 1.32726C13.7698 1.90916 15.0007 2.90081 15.8746 4.17832C16.7485 5.45583 17.2266 6.96254 17.2491 8.51019C17.2715 10.0578 16.8375 11.5778 16.001 12.8801C15.1646 14.1825 13.9629 15.2095 12.5462 15.8328C11.1294 16.4561 9.56039 16.6481 8.03515 16.3848C6.5099 16.1214 5.09607 15.4145 3.97031 14.3522C3.89796 14.2838 3.8014 14.247 3.70189 14.2498C3.60238 14.2526 3.50806 14.2949 3.43969 14.3672C3.37131 14.4396 3.33448 14.5361 3.33729 14.6356C3.3401 14.7351 3.38233 14.8295 3.45469 14.8978C4.47856 15.8641 5.72337 16.565 7.08047 16.9394C8.43757 17.3138 9.86568 17.3503 11.2401 17.0458C12.6146 16.7413 13.8936 16.1049 14.9656 15.1923C16.0375 14.2797 16.8697 13.1185 17.3896 11.8103C17.9095 10.502 18.1013 9.08632 17.9482 7.68687C17.7951 6.28743 17.3017 4.94673 16.5112 3.78184C15.7207 2.61695 14.657 1.66326 13.4131 1.00405C12.1692 0.344833 10.7828 0.000126651 9.375 2.11615e-05Z" fill="white"/>
</svg>
