<svg width="21" height="20" viewBox="0 0 21 20" fill="none" xmlns="http://www.w3.org/2000/svg">
<path d="M12.125 5.5V9.36344L15.3284 11.2853C15.458 11.3598 15.5714 11.4594 15.662 11.5783C15.7526 11.6971 15.8187 11.8328 15.8563 11.9774C15.8938 12.1221 15.9022 12.2728 15.881 12.4207C15.8597 12.5686 15.8091 12.7108 15.7323 12.839C15.6554 12.9672 15.5538 13.0787 15.4333 13.1672C15.3129 13.2557 15.176 13.3192 15.0307 13.3542C14.8854 13.3892 14.7346 13.3949 14.5871 13.3709C14.4396 13.347 14.2983 13.2938 14.1716 13.2147L10.4216 10.9647C10.2549 10.8648 10.117 10.7234 10.0212 10.5544C9.9254 10.3853 9.87504 10.1943 9.875 10V5.5C9.875 5.20163 9.99353 4.91548 10.2045 4.7045C10.4155 4.49353 10.7016 4.375 11 4.375C11.2984 4.375 11.5845 4.49353 11.7955 4.7045C12.0065 4.91548 12.125 5.20163 12.125 5.5ZM11 0.625C9.76728 0.621826 8.54618 0.863315 7.40746 1.33548C6.26874 1.80764 5.23504 2.50108 4.36625 3.37563C3.92656 3.82 3.5225 4.25406 3.125 4.68812V4C3.125 3.70163 3.00647 3.41548 2.7955 3.20451C2.58452 2.99353 2.29837 2.875 2 2.875C1.70163 2.875 1.41548 2.99353 1.2045 3.20451C0.993526 3.41548 0.875 3.70163 0.875 4V7.75C0.875 8.04837 0.993526 8.33452 1.2045 8.5455C1.41548 8.75647 1.70163 8.875 2 8.875H5.75C6.04837 8.875 6.33452 8.75647 6.5455 8.5455C6.75647 8.33452 6.875 8.04837 6.875 7.75C6.875 7.45163 6.75647 7.16548 6.5455 6.9545C6.33452 6.74353 6.04837 6.625 5.75 6.625H4.41594C4.90625 6.0625 5.40969 5.52063 5.96188 4.96188C6.95203 3.97144 8.2121 3.29477 9.58465 3.01642C10.9572 2.73808 12.3813 2.8704 13.6791 3.39686C14.9769 3.92332 16.0907 4.82056 16.8814 5.97647C17.6722 7.13237 18.1047 8.49568 18.125 9.89601C18.1453 11.2964 17.7525 12.6716 16.9956 13.85C16.2387 15.0283 15.1513 15.9574 13.8693 16.5213C12.5874 17.0852 11.1677 17.2587 9.78764 17.0203C8.4076 16.7818 7.12844 16.1419 6.11 15.1806C5.89294 14.9757 5.60338 14.8655 5.30502 14.8741C5.00666 14.8827 4.72394 15.0095 4.51906 15.2266C4.31418 15.4436 4.20392 15.7332 4.21254 16.0315C4.22115 16.3299 4.34794 16.6126 4.565 16.8175C5.67784 17.8679 7.0309 18.63 8.50605 19.0371C9.9812 19.4443 11.5336 19.4841 13.0277 19.1531C14.5218 18.8222 15.9121 18.1305 17.0774 17.1386C18.2426 16.1466 19.1473 14.8844 19.7125 13.4623C20.2776 12.0402 20.4861 10.5013 20.3196 8.98011C20.1531 7.45889 19.6168 6.00154 18.7574 4.73532C17.8981 3.4691 16.7418 2.43249 15.3896 1.71601C14.0374 0.999534 12.5303 0.624961 11 0.625Z" fill="white"/>
</svg>
