<svg width="24" height="16" viewBox="0 0 24 16" fill="none" xmlns="http://www.w3.org/2000/svg">
<path d="M10.5563 10.8528C11.6008 10.2608 12.42 9.33961 12.8861 8.23308C13.3522 7.12656 13.4389 5.89688 13.1328 4.73589C12.8266 3.5749 12.1448 2.54789 11.1937 1.81507C10.2426 1.08225 9.07569 0.684845 7.87501 0.684845C6.67434 0.684845 5.50742 1.08225 4.55631 1.81507C3.6052 2.54789 2.92339 3.5749 2.61724 4.73589C2.31109 5.89688 2.39783 7.12656 2.86391 8.23308C3.32999 9.33961 4.14921 10.2608 5.19376 10.8528C3.2578 11.47 1.59521 12.7384 0.488452 14.4425C0.406898 14.5674 0.378317 14.7197 0.408996 14.8657C0.439676 15.0117 0.527103 15.1395 0.652045 15.2211C0.776987 15.3026 0.929209 15.3312 1.07522 15.3005C1.22124 15.2699 1.34909 15.1824 1.43064 15.0575C2.12871 13.9842 3.0838 13.1022 4.2092 12.4917C5.3346 11.8812 6.59467 11.5614 7.87501 11.5614C9.15536 11.5614 10.4154 11.8812 11.5408 12.4917C12.6662 13.1022 13.6213 13.9842 14.3194 15.0575C14.4063 15.1688 14.5318 15.2434 14.6711 15.2664C14.8104 15.2895 14.9533 15.2593 15.0714 15.1818C15.1895 15.1043 15.2741 14.9853 15.3085 14.8484C15.3428 14.7114 15.3244 14.5665 15.2569 14.4425C14.1513 12.7393 12.4905 11.471 10.5563 10.8528ZM3.56251 6.125C3.56251 5.27207 3.81544 4.43829 4.2893 3.7291C4.76316 3.01991 5.43669 2.46717 6.22469 2.14077C7.0127 1.81436 7.8798 1.72896 8.71634 1.89536C9.55288 2.06176 10.3213 2.47249 10.9244 3.0756C11.5275 3.67871 11.9383 4.44713 12.1047 5.28367C12.271 6.12021 12.1856 6.98731 11.8592 7.77532C11.5328 8.56333 10.9801 9.23685 10.2709 9.71071C9.56172 10.1846 8.72795 10.4375 7.87501 10.4375C6.73173 10.436 5.63569 9.98118 4.82726 9.17275C4.01883 8.36433 3.564 7.26829 3.56251 6.125ZM23.3438 15.2187C23.2189 15.3002 23.0668 15.3288 22.9209 15.2982C22.775 15.2676 22.6473 15.1804 22.5656 15.0556C21.8688 13.9822 20.9144 13.1003 19.7895 12.4901C18.6645 11.88 17.4048 11.5611 16.125 11.5625C15.9758 11.5625 15.8328 11.5032 15.7273 11.3977C15.6218 11.2923 15.5625 11.1492 15.5625 11C15.5625 10.8508 15.6218 10.7077 15.7273 10.6023C15.8328 10.4968 15.9758 10.4375 16.125 10.4375C16.7601 10.4369 17.3871 10.296 17.9614 10.0249C18.5357 9.75384 19.043 9.35929 19.4472 8.86944C19.8513 8.37958 20.1423 7.80652 20.2993 7.19118C20.4563 6.57585 20.4755 5.93343 20.3554 5.30983C20.2354 4.68624 19.9791 4.09684 19.6049 3.58377C19.2307 3.07069 18.7478 2.64659 18.1907 2.34177C17.6335 2.03695 17.016 1.85893 16.3821 1.82043C15.7482 1.78193 15.1137 1.8839 14.5238 2.11906C14.4551 2.14719 14.3815 2.16144 14.3072 2.161C14.233 2.16055 14.1596 2.14541 14.0912 2.11646C14.0229 2.0875 13.9609 2.0453 13.9089 1.99229C13.857 1.93927 13.816 1.8765 13.7884 1.80758C13.7608 1.73866 13.7471 1.66496 13.7482 1.59072C13.7492 1.51649 13.7649 1.4432 13.7944 1.37507C13.8239 1.30694 13.8666 1.24532 13.92 1.19376C13.9734 1.14221 14.0365 1.10174 14.1056 1.07469C15.3852 0.564567 16.8106 0.559073 18.094 1.05931C19.3774 1.55955 20.4232 2.52824 21.02 3.7697C21.6168 5.01116 21.7202 6.43285 21.3093 7.74759C20.8984 9.06234 20.0038 10.1721 18.8063 10.8528C20.7422 11.47 22.4048 12.7384 23.5116 14.4425C23.592 14.5678 23.6195 14.7198 23.5881 14.8653C23.5566 15.0108 23.4688 15.1379 23.3438 15.2187Z" fill="white"/>
</svg>
