<svg width="20" height="20" viewBox="0 0 20 20" fill="none" xmlns="http://www.w3.org/2000/svg">
<path d="M18.0601 10.0126C18.0639 9.8776 18.0639 9.7426 18.0601 9.6076L19.4589 7.8601C19.5322 7.76835 19.583 7.66065 19.6071 7.54569C19.6312 7.43073 19.6279 7.31171 19.5976 7.19823C19.3679 6.33643 19.0249 5.5089 18.5776 4.73729C18.519 4.63634 18.4376 4.55046 18.34 4.4865C18.2423 4.42254 18.1311 4.38225 18.0151 4.36885L15.7914 4.12135C15.6989 4.02385 15.6051 3.9301 15.5101 3.8401L15.2476 1.61073C15.2341 1.49468 15.1937 1.38338 15.1295 1.28572C15.0654 1.18806 14.9794 1.10674 14.8782 1.04823C14.1067 0.601272 13.2791 0.258897 12.4173 0.0301014C12.3038 -0.000217189 12.1848 -0.00345701 12.0698 0.020643C11.9549 0.0447431 11.8472 0.0955092 11.7554 0.168851L10.0126 1.5601C9.8776 1.5601 9.7426 1.5601 9.6076 1.5601L7.8601 0.164164C7.76835 0.0908217 7.66065 0.0400557 7.54569 0.0159556C7.43073 -0.00814444 7.31171 -0.0049048 7.19823 0.0254138C6.33643 0.255127 5.5089 0.598117 4.73729 1.04541C4.63634 1.10403 4.55046 1.18541 4.4865 1.28306C4.42254 1.38071 4.38225 1.49195 4.36885 1.60791L4.12135 3.83541C4.02385 3.92854 3.9301 4.02229 3.8401 4.11666L1.61073 4.3726C1.49468 4.3861 1.38338 4.42653 1.28572 4.49066C1.18806 4.55479 1.10674 4.64085 1.04823 4.74198C0.601364 5.51369 0.258696 6.3412 0.0291639 7.20291C-0.0010265 7.31647 -0.00411435 7.43553 0.0201492 7.55049C0.0444127 7.66546 0.0953487 7.77312 0.168851 7.86479L1.5601 9.6076C1.5601 9.7426 1.5601 9.8776 1.5601 10.0126L0.164164 11.7601C0.0908217 11.8519 0.0400557 11.9595 0.0159556 12.0745C-0.00814444 12.1895 -0.0049048 12.3085 0.0254138 12.422C0.255127 13.2838 0.598117 14.1113 1.04541 14.8829C1.10403 14.9839 1.18541 15.0697 1.28306 15.1337C1.38071 15.1977 1.49195 15.238 1.60791 15.2514L3.83166 15.4989C3.92479 15.5964 4.01854 15.6901 4.11291 15.7801L4.3726 18.0095C4.3861 18.1255 4.42653 18.2368 4.49066 18.3345C4.55479 18.4321 4.64085 18.5135 4.74198 18.572C5.51369 19.0188 6.3412 19.3615 7.20291 19.591C7.31647 19.6212 7.43553 19.6243 7.55049 19.6001C7.66546 19.5758 7.77312 19.5249 7.86479 19.4514L9.6076 18.0601C9.7426 18.0639 9.8776 18.0639 10.0126 18.0601L11.7601 19.4589C11.8519 19.5322 11.9595 19.583 12.0745 19.6071C12.1895 19.6312 12.3085 19.6279 12.422 19.5976C13.2839 19.3683 14.1115 19.0253 14.8829 18.5776C14.9839 18.519 15.0697 18.4376 15.1337 18.34C15.1977 18.2423 15.238 18.1311 15.2514 18.0151L15.4989 15.7914C15.5964 15.6989 15.6901 15.6051 15.7801 15.5101L18.0095 15.2476C18.1255 15.2341 18.2368 15.1937 18.3345 15.1295C18.4321 15.0654 18.5135 14.9794 18.572 14.8782C19.0188 14.1065 19.3615 13.279 19.591 12.4173C19.6212 12.3037 19.6243 12.1847 19.6001 12.0697C19.5758 11.9547 19.5249 11.8471 19.4514 11.7554L18.0601 10.0126ZM9.8101 13.5601C9.06842 13.5601 8.3434 13.3402 7.72671 12.9281C7.11003 12.5161 6.62938 11.9304 6.34555 11.2452C6.06172 10.5599 5.98746 9.80594 6.13216 9.07851C6.27685 8.35108 6.634 7.6829 7.15845 7.15845C7.6829 6.634 8.35108 6.27685 9.07851 6.13216C9.80594 5.98746 10.5599 6.06172 11.2452 6.34555C11.9304 6.62938 12.5161 7.11003 12.9281 7.72671C13.3402 8.3434 13.5601 9.06842 13.5601 9.8101C13.5601 10.8047 13.165 11.7585 12.4618 12.4618C11.7585 13.165 10.8047 13.5601 9.8101 13.5601Z" fill="white"/>
</svg>
